<mxfile host="app.diagrams.net" modified="2022-10-31T02:55:22.589Z" agent="5.0 (Macintosh; Intel Mac OS X 10_15_7) AppleWebKit/537.36 (KHTML, like Gecko) Chrome/107.0.0.0 Safari/537.36" etag="n2n6kpNxKg8HT4P5ggPc" version="20.5.1" type="github">
  <diagram id="KUGNr2Hxa03ycNXzmM79" name="Page-1">
    <mxGraphModel dx="1186" dy="641" grid="1" gridSize="10" guides="1" tooltips="1" connect="1" arrows="1" fold="1" page="1" pageScale="2" pageWidth="850" pageHeight="1100" math="0" shadow="0">
      <root>
        <mxCell id="0" />
        <mxCell id="1" parent="0" />
        <mxCell id="IR0dK76-OblaRV8fg7Rf-25" value="" style="whiteSpace=wrap;html=1;aspect=fixed;shadow=1;fillColor=default;" vertex="1" parent="1">
          <mxGeometry x="340" y="90" width="420" height="420" as="geometry" />
        </mxCell>
        <mxCell id="IR0dK76-OblaRV8fg7Rf-22" value="" style="whiteSpace=wrap;html=1;aspect=fixed;shadow=1;fillColor=default;" vertex="1" parent="1">
          <mxGeometry x="370" y="140" width="80" height="80" as="geometry" />
        </mxCell>
        <mxCell id="IR0dK76-OblaRV8fg7Rf-23" style="edgeStyle=orthogonalEdgeStyle;rounded=0;orthogonalLoop=1;jettySize=auto;html=1;exitX=1;exitY=0.5;exitDx=0;exitDy=0;entryX=0;entryY=0.5;entryDx=0;entryDy=0;" edge="1" parent="1" source="IR0dK76-OblaRV8fg7Rf-8" target="IR0dK76-OblaRV8fg7Rf-21">
          <mxGeometry relative="1" as="geometry" />
        </mxCell>
        <mxCell id="IR0dK76-OblaRV8fg7Rf-8" value="" style="rounded=0;whiteSpace=wrap;html=1;shadow=1;fillColor=default;" vertex="1" parent="1">
          <mxGeometry x="40" y="140" width="130" height="310" as="geometry" />
        </mxCell>
        <mxCell id="IR0dK76-OblaRV8fg7Rf-9" value="" style="verticalLabelPosition=bottom;html=1;verticalAlign=top;align=center;strokeColor=none;fillColor=#00BEF2;shape=mxgraph.azure.user;shadow=1;" vertex="1" parent="1">
          <mxGeometry x="82" y="360" width="47.5" height="50" as="geometry" />
        </mxCell>
        <mxCell id="IR0dK76-OblaRV8fg7Rf-10" value="" style="html=1;verticalLabelPosition=bottom;align=center;labelBackgroundColor=#ffffff;verticalAlign=top;strokeWidth=2;strokeColor=#0080F0;shadow=0;dashed=0;shape=mxgraph.ios7.icons.smartphone;fillColor=default;" vertex="1" parent="1">
          <mxGeometry x="96" y="280" width="18" height="30" as="geometry" />
        </mxCell>
        <mxCell id="IR0dK76-OblaRV8fg7Rf-15" value="" style="shape=image;verticalLabelPosition=bottom;labelBackgroundColor=default;verticalAlign=top;aspect=fixed;imageAspect=0;image=data:image/svg+xml,PHN2ZyB4bWxucz0iaHR0cDovL3d3dy53My5vcmcvMjAwMC9zdmciIHZpZXdCb3g9IjAgMCAxOCAxOCIgaGVpZ2h0PSIxOCIgd2lkdGg9IjE4IiBpZD0iZjc4ZWYzN2ItZmRlNC00NjFjLTk0ZTItZGNjZmYzMmRkNWQ3Ij48ZGVmcz48bGluZWFyR3JhZGllbnQgZ3JhZGllbnRVbml0cz0idXNlclNwYWNlT25Vc2UiIHkyPSIxLjE4IiB4Mj0iOSIgeTE9IjE2LjgyIiB4MT0iOSIgaWQ9ImJmOGE5NTgzLWFhZTktNDhmZi04N2Q4LWZiOGY0NGU3ZDZiZCI+PHN0b3Agc3RvcC1jb2xvcj0iIzE5OGFiMyIgb2Zmc2V0PSIwIi8+PHN0b3Agc3RvcC1jb2xvcj0iIzFmOWRjNCIgb2Zmc2V0PSIwLjA5Ii8+PHN0b3Agc3RvcC1jb2xvcj0iIzI4YjVkOSIgb2Zmc2V0PSIwLjI0Ii8+PHN0b3Agc3RvcC1jb2xvcj0iIzJkYzZlOSIgb2Zmc2V0PSIwLjQiLz48c3RvcCBzdG9wLWNvbG9yPSIjMzFkMWYyIiBvZmZzZXQ9IjAuNTciLz48c3RvcCBzdG9wLWNvbG9yPSIjMzJkNGY1IiBvZmZzZXQ9IjAuNzgiLz48L2xpbmVhckdyYWRpZW50PjxsaW5lYXJHcmFkaWVudCBncmFkaWVudFVuaXRzPSJ1c2VyU3BhY2VPblVzZSIgeTI9IjE0LjQ2IiB4Mj0iOC4zNiIgeTE9IjExLjM1IiB4MT0iOC4zNiIgaWQ9ImY5YjFiYjhjLTcyOGUtNGFiZi1iY2U1LTZjMTFhYzE3MGM1YiI+PHN0b3Agc3RvcC1jb2xvcj0iI2M2OWFlYiIgb2Zmc2V0PSIwIi8+PHN0b3Agc3RvcC1jb2xvcj0iIzZmNGJiMiIgb2Zmc2V0PSIxIi8+PC9saW5lYXJHcmFkaWVudD48L2RlZnM+PHRpdGxlPkljb24td2ViLTQyPC90aXRsZT48cGF0aCBmaWxsPSJ1cmwoI2JmOGE5NTgzLWFhZTktNDhmZi04N2Q4LWZiOGY0NGU3ZDZiZCkiIGQ9Ik0xNC4xOCw1Ljg5QTQuODUsNC44NSwwLDAsMCw5LjIzLDEuMTgsNSw1LDAsMCwwLDQuNDgsNC40Nyw0LjYxLDQuNjEsMCwwLDAsLjUsOSw0LjY3LDQuNjcsMCwwLDAsNS4yOSwxMy41YTMsMywwLDAsMCwuNDIsMGgxLjJhMS40NywxLjQ3LDAsMCwxLS4xMS0uNTZ2MEExLjUxLDEuNTEsMCwwLDEsNywxMi4yMUg1LjZsLS4zMSwwQTMuNDEsMy40MSwwLDAsMSwxLjc3LDksMy4zMywzLjMzLDAsMCwxLDQuNjgsNS43M2wuNzYtLjEyLjI1LS43M0EzLjczLDMuNzMsMCwwLDEsOS4yMywyLjQ1LDMuNiwzLjYsMCwwLDEsMTIuOTEsNS45VjdMMTQsNy4xNWEyLjU5LDIuNTksMCwwLDEsMi4yNiwyLjQ5LDIuNjMsMi42MywwLDAsMS0yLjYyLDIuNTRoLS4xNWwtLjA4LDBoLTFBMy45MiwzLjkyLDAsMCwwLDguNTQsOWEuNjQuNjQsMCwxLDAsMCwxLjI3LDIuNjUsMi42NSwwLDAsMSwwLDUuMjkuNjQuNjQsMCwxLDAsMCwxLjI3LDMuOTIsMy45MiwwLDAsMCwzLjg3LTMuMzRoMS4wNWEuNjQuNjQsMCwwLDAsLjIsMEEzLjkxLDMuOTEsMCwwLDAsMTcuNSw5LjY0LDMuODYsMy44NiwwLDAsMCwxNC4xOCw1Ljg5WiIvPjxyZWN0IGZpbGw9InVybCgjZjliMWJiOGMtNzI4ZS00YWJmLWJjZTUtNmMxMWFjMTcwYzViKSIgcng9IjEuNTQiIGhlaWdodD0iMy4xMiIgd2lkdGg9IjMuMTIiIHk9IjExLjM1IiB4PSI2LjgiLz48L3N2Zz4=;" vertex="1" parent="1">
          <mxGeometry x="380" y="150" width="60" height="60" as="geometry" />
        </mxCell>
        <mxCell id="IR0dK76-OblaRV8fg7Rf-20" value="" style="sketch=0;points=[[0,0,0],[0.25,0,0],[0.5,0,0],[0.75,0,0],[1,0,0],[0,1,0],[0.25,1,0],[0.5,1,0],[0.75,1,0],[1,1,0],[0,0.25,0],[0,0.5,0],[0,0.75,0],[1,0.25,0],[1,0.5,0],[1,0.75,0]];outlineConnect=0;fontColor=#232F3E;gradientColor=#4AB29A;gradientDirection=north;fillColor=#116D5B;strokeColor=#ffffff;dashed=0;verticalLabelPosition=bottom;verticalAlign=top;align=center;html=1;fontSize=12;fontStyle=0;aspect=fixed;shape=mxgraph.aws4.resourceIcon;resIcon=mxgraph.aws4.desktop_and_app_streaming;shadow=1;" vertex="1" parent="1">
          <mxGeometry x="67" y="160" width="78" height="78" as="geometry" />
        </mxCell>
        <mxCell id="IR0dK76-OblaRV8fg7Rf-39" style="edgeStyle=orthogonalEdgeStyle;rounded=0;orthogonalLoop=1;jettySize=auto;html=1;exitX=1;exitY=0.5;exitDx=0;exitDy=0;" edge="1" parent="1" source="IR0dK76-OblaRV8fg7Rf-21" target="IR0dK76-OblaRV8fg7Rf-36">
          <mxGeometry relative="1" as="geometry" />
        </mxCell>
        <mxCell id="IR0dK76-OblaRV8fg7Rf-21" value="" style="shape=image;verticalLabelPosition=bottom;labelBackgroundColor=default;verticalAlign=top;aspect=fixed;imageAspect=0;image=data:image/png,iVBORw0KGgoAAAANSUhEUgAAAOEAAADhCAMAAAAJbSJIAAAAmVBMVEX///+BpOMxTlUtSk6Ep+dbe6Dz9PU/WWAvTFExTlQrSEocQUmFqOorSlEoSE9+od4bQEhigqw9Wmp6nNY3VWALOUI0UVp1l85Uc5Rxk8ff4+RMaoX2+PhAXnDT2NnGzM5RZ22ZpaikrrG4wMJff6eQnaBPbYpqi7p7io6GlJjR19jp7OxmeX1GZHpbb3RHYGZxg4e7w8WstbjJBdsRAAAI7klEQVR4nO2d2ZaiMBCGZbENRBZFUdQet3Zrt27f/+FGpQKooCCRSJ/6LmbOzEUP/1RSlVSqkkoFQRAEQRAEQRAEQRAEQRAEQZC8fKy/p+PZarlcrmbjw7D3IfqDuNL7Xe1c26bUBKhty7vltCf6w/jwPdub1DTka4zj3+5n/0R/Xl56M8OOUReqtOXxWvRH5mC4sc1EdQzT/vkW/aFPMh3Zyda70Eg3ZRyswz291qcRH027Ga10U7axut60L/QRRSduq7nd9rfbz2ZLVhSFXNqxPRb9zZmY0Mj80xTd3VYXHUeq11VVPf5iOV6ju5V1JWpMui/PUF3vaGRk6m7Xs47KpAuOf7YWXVePWNKgZTHjb2QCKqTvXYuLqFS9uRwxJN2UYqUza4fD06069QR5QN36aumBRrP2/sucwU8wQgmpWknmi1pSarQCOxrmULSCBwz2zMVo+tZJoc/XWA3mo0F/RWu4y7rGBCru4sH4vNDobBVmensqWsUd1oEF0xuQaWwEAdJ+XysGQ1TTq9n0nSR2WsyM9tuuU3dMoLLILPAo0WIj1TDf1KMuwYtqmveEwJPGuQ4Sa28ZFw8sTJAnBUYkmhvRamLoMYH60wIjEu2JaD23aEaOORhK7MNctAUvwz/W6/XHIPo3KzChkt2LXtL0g4axHyT9469mPZxtRrXjJ7j73c/kG77jHxO4zSlQcmB/LGijMTjsDGoaxnlEGoZJqfxzXkiOYIxqOfUdx+kCpiIVEDLWM/smMyGbtjGpHOz8XiaQ2FVE+dOJmZA4o7UajNFufoGSZLX8cdoueGnTG9F4fSGaa3EQGIxTY1eowOlt5uxGodLgYcLjrnjr+1NapBEn7YiSU+Ls+KuukAuVWpOPQEnq6IXPxLEdytPd/pfXcZyO15i3opkkPVesj6L2wYiFudODHer7XFgstXT83dsGGrUWL4GS6oE7nRUk8DsYosqnV7/QodY7n7DO0jnNwvOP/YSVTTELmw8DnAzRvmIyg+oXIfwcKfzMhv/fZheTl/qBMKg0O7FWUj1XJ0q+Ffc1lu/DzGURAoc2G6FJuUHV+ppXM+ZlHlBnvqYIhXt/jJLPOx90k7TPC4v6RaRspjZ4SoevhgdYEBIL2GHUfBPynWaPAW9awMrt2zehMs+Q3+WisOp709fnpJZnR6rpHENBOoUwEV++rBnIYkx43OsXFBG//S2T3ilaoGS5xbiasT9Im4ULlCTf1bw85m/OnpTMi3WkJ1R/k2i8eAc18DNMvLa2mRTOCwkXH7Bt4JBgyqzQT0i9Om+6NkU5GhYQjdprFfYg3otU+FKBlbVwhbK8W45/Xxb2e2MYpZ5AhYZpUko3E/4q/81qbbb3FeFLq0Htwlknbe/HPEUOprtI5SvpC1d4NibdcavTmLgXCWAhChu6fINBa1yOTg/mVYKbz3lERhyZ3Eo8ajRy2/F7ZF/9VEKK3d/7qAtNV051qNcFt/YoX2pjRa9LX/WmgCXNSaLTqFar3X6T6LoSlWnQ1fP6erXICZOmKPK24Vm800zpNfpIzqLbVKKnJLT27DH/IVK7TJRW15PqwuRFUdW609iS0Lsa7cNTAlfRA5jtQnoHcQGq2qm6oUb7mY3jJiwN1fudtzDeJapVJUEpKt1kXpOPIqWhncLzMulQpW5Qw2hm3HYMds+VhhbN6bALzGjuM6UaN0FpaJ/vEQRvThXFTOIog0RWnq3pX2+t74TqaTBSzfQ5jhl4USJ7bzxCGarTBKdKf1IK/GUC3fgjwndDtdjJc8oixh475JXfewpGYRLTlaRAnNC08ggMixjdFN6G1ZI8X9wrAqflSzQfT8U1O8YWkKvIgepBXGw/PLyBSKgISN3nQv2C+rdHCUfwo4RfwU9RBPVvD86noPhVKdUk9HHYTuFuiy2YUEgqJi9snNK71WFQTOKKSMXkB0IGvRMxoB4od4m9GNSF8nAm7mA5U3QlAidUqJiWEwWuSzwLT7ASP5oYEydQiVDOWXji0cLGDxUkdx+IMFjvQlLA6MHpWbnWa1FUDwJGQuOp31GnCcnacwK6M5KqUvzi2BIP0rBmI76iYeAXHpY0GPoEBdOxExFihYhiEn50yJ2J+AsJthJPw3Aixi5roGqtJfojc1GHArjYiLgER1OCBGIygauJU7gTVpfHEVbSEFvW/wdcaehM23HhAhI075/HvwfbQbXjwoVdxhzbNUFrRlw9kd+xVXSjAWfYyvSewpLb8O8rvDdKaZlzNAymMNbTaOVOYfjcjRawwxdQl8cRFvHtGIFse9j8u6u2Gay8S5pK9IGVtxG78mZJDAFl3Py42z4Epfj8GulFcHcHDA0jpXam97MYrK1JROMWL+D+haTemrGw5jtusCRGQlEtXH5U4v1TkBFOOriowTAtr8IHWf3KSlzrFif82ujkkxmIF6T4Pl8+PD5dg0Pu0p5cPD4hZVcmKN1SGjHNKTe7M6GkRgQTmvdq2+DKSqWMWyj1C0x4t9oEzp9KuThNVzHEjKi5or83M2mrvoKyr7KN09SVe5UeXHRVspxbhurLygyOEf9sBW14NycpRx37GYtVQae6wQaKTmTilqfQO1slO1vZyKRVDitm7kYI+/KIXIa5+ERHSbQr6P09quqR7F1BYWeXps/TvEohjmc7u6Ldea2/2Z1XqQTv32jv26CnWt3gOlEz+9U1y7BLVum+o0bVqspBJ/ATXbLRq2Y1hcyTH/kRgqp2utFO5+d68odht7qmKM1q5z2a1f1u9U8O3eqXj1GdH9uaNzoW6/wXQl2VLGfRbV3cy0z3OS5yubqX/HTvc3M771YF0Z33m7J++X6ZQWe5Lo/qXT0KJ2saIYowCLm64sSwR7lfhhjuUz5cKACDylxu4ZmO6OPHJwVg0D23x0uGP/T2HQSxGNTe/PK8vW09GbXj3oAVg0HbNa43YYHI6Y9r0vOTHQI5fYG8ObzuzrbhZLXZjfY1Iez3u81yMizgfv3B4EMIA2Hv6SAIgiAIgiAIgiAIgiAIgiAIgiAIgiAIgiAIgiAIgiAIgiAIgiAIUgz/AVRB51fzV5BCAAAAAElFTkSuQmCC;" vertex="1" parent="1">
          <mxGeometry x="220" y="260" width="70" height="70" as="geometry" />
        </mxCell>
        <mxCell id="IR0dK76-OblaRV8fg7Rf-24" value="" style="shape=image;verticalLabelPosition=bottom;labelBackgroundColor=default;verticalAlign=top;aspect=fixed;imageAspect=0;image=data:image/svg+xml,PHN2ZyB4bWxucz0iaHR0cDovL3d3dy53My5vcmcvMjAwMC9zdmciIHZpZXdCb3g9IjAgMCAxOCAxOCIgaGVpZ2h0PSIxOCIgd2lkdGg9IjE4IiBpZD0iYTI2NGQ2NTUtMWRiYi00OWQyLWFiMTEtNTY2MTYzNmRjYWMzIj48ZGVmcz48bGluZWFyR3JhZGllbnQgZ3JhZGllbnRVbml0cz0idXNlclNwYWNlT25Vc2UiIGdyYWRpZW50VHJhbnNmb3JtPSJ0cmFuc2xhdGUoMi4wMyAtMS4xNSkgcm90YXRlKC0wLjA4KSIgeTI9IjkiIHgyPSIxMC43IiB5MT0iMTEuMzIiIHgxPSIxMC43IiBpZD0iYTg1MmU2MTEtNTg0OS00NjcwLTg5Y2UtNTE4ZGRmN2VkZWFlIj48c3RvcCBzdG9wLWNvbG9yPSIjMDA3OGQ0IiBvZmZzZXQ9IjAiLz48c3RvcCBzdG9wLWNvbG9yPSIjNWVhMGVmIiBvZmZzZXQ9IjAuODIiLz48L2xpbmVhckdyYWRpZW50PjxsaW5lYXJHcmFkaWVudCBncmFkaWVudFVuaXRzPSJ1c2VyU3BhY2VPblVzZSIgeTI9IjkiIHgyPSI3IiB5MT0iMTEuMzIiIHgxPSI2Ljk5IiBpZD0iYTIzNTA4NjItZjk5Ny00YzU3LWFhZDAtYzE2ZjljYTRjMGMzIj48c3RvcCBzdG9wLWNvbG9yPSIjMDA3OGQ0IiBvZmZzZXQ9IjAiLz48c3RvcCBzdG9wLWNvbG9yPSIjNWVhMGVmIiBvZmZzZXQ9IjAuODIiLz48L2xpbmVhckdyYWRpZW50PjxsaW5lYXJHcmFkaWVudCBncmFkaWVudFVuaXRzPSJ1c2VyU3BhY2VPblVzZSIgeTI9IjkiIHgyPSIzLjMiIHkxPSIxMS4zMiIgeDE9IjMuMjkiIGlkPSJlNTQ3MzY5NS0wNjhhLTQ0ZmYtYjNkYy05MjcxNTkyMjZhOGUiPjxzdG9wIHN0b3AtY29sb3I9IiMwMDc4ZDQiIG9mZnNldD0iMCIvPjxzdG9wIHN0b3AtY29sb3I9IiM1ZWEwZWYiIG9mZnNldD0iMC44MiIvPjwvbGluZWFyR3JhZGllbnQ+PC9kZWZzPjx0aXRsZT5JY29uLW5ldHdvcmtpbmctNzU8L3RpdGxlPjxjaXJjbGUgZmlsbD0idXJsKCNhODUyZTYxMS01ODQ5LTQ2NzAtODljZS01MThkZGY3ZWRlYWUpIiByPSIxLjE2IiBjeT0iOC45OSIgY3g9IjEyLjc0Ii8+PGNpcmNsZSBmaWxsPSJ1cmwoI2EyMzUwODYyLWY5OTctNGM1Ny1hYWQwLWMxNmY5Y2E0YzBjMykiIHI9IjEuMTYiIGN5PSI5IiBjeD0iOS4wNCIvPjxjaXJjbGUgZmlsbD0idXJsKCNlNTQ3MzY5NS0wNjhhLTQ0ZmYtYjNkYy05MjcxNTkyMjZhOGUpIiByPSIxLjE2IiBjeT0iOSIgY3g9IjUuMzQiLz48cGF0aCBmaWxsPSIjNTBlNmZmIiB0cmFuc2Zvcm09InRyYW5zbGF0ZSgxMy4xOCAxNi45Mykgcm90YXRlKDEzNC45MikiIGQ9Ik0yLjYxLDcuMjhoLjk0YS4zLjMsMCwwLDEsLjMuM3Y2Ljk0YS42LjYsMCwwLDEtLjYuNkgyLjMxYTAsMCwwLDAsMSwwLDBWNy41OEEuMy4zLDAsMCwxLDIuNjEsNy4yOFoiLz48cGF0aCBmaWxsPSIjMTQ5MGRmIiB0cmFuc2Zvcm09InRyYW5zbGF0ZSg1LjY2IC0wLjE2KSByb3RhdGUoNDQuOTIpIiBkPSJNMi41NiwyLjkxSDMuNWEuMy4zLDAsMCwxLC4zLjN2Ny40M2EwLDAsMCwwLDEsMCwwSDIuODZhLjYuNiwwLDAsMS0uNi0uNlYzLjIxYS4zLjMsMCwwLDEsLjMtLjNaIi8+PHBhdGggZmlsbD0iIzUwZTZmZiIgdHJhbnNmb3JtPSJ0cmFuc2xhdGUoMTIuMzIgLTcuMjgpIHJvdGF0ZSg0NS4wOCkiIGQ9Ik0xNC4xNSw3LjI4aC45NGEuNi42LDAsMCwxLC42LjZ2Ni45NGEuMy4zLDAsMCwxLS4zLjNoLS45NGEuMy4zLDAsMCwxLS4zLS4zVjcuMjhhMCwwLDAsMCwxLDAsMFoiLz48cGF0aCBmaWxsPSIjMTQ5MGRmIiB0cmFuc2Zvcm09InRyYW5zbGF0ZSgzMC4zNiAwLjk5KSByb3RhdGUoMTM1LjA4KSIgZD0iTTE0LjgxLDIuOTFoLjk0YTAsMCwwLDAsMSwwLDB2Ny40M2EuMy4zLDAsMCwxLS4zLjNIMTQuNWEuMy4zLDAsMCwxLS4zLS4zVjMuNTFhLjYuNiwwLDAsMSwuNi0uNloiLz48L3N2Zz4=;" vertex="1" parent="1">
          <mxGeometry x="700" y="70" width="40" height="40" as="geometry" />
        </mxCell>
        <mxCell id="IR0dK76-OblaRV8fg7Rf-30" value="" style="whiteSpace=wrap;html=1;aspect=fixed;shadow=1;fillColor=default;" vertex="1" parent="1">
          <mxGeometry x="560" y="330" width="110" height="110" as="geometry" />
        </mxCell>
        <mxCell id="IR0dK76-OblaRV8fg7Rf-28" value="" style="shape=image;verticalLabelPosition=bottom;labelBackgroundColor=default;verticalAlign=top;aspect=fixed;imageAspect=0;image=data:image/svg+xml,PHN2ZyB4bWxucz0iaHR0cDovL3d3dy53My5vcmcvMjAwMC9zdmciIHZpZXdCb3g9IjAgMCAxOCAxOCIgaGVpZ2h0PSIxOCIgd2lkdGg9IjE4IiBpZD0iYWY2YTJjNDItYmQ0OC00ODU3LWE0NzktYWVjZjhiM2RlNGY2Ij48ZGVmcz48bGluZWFyR3JhZGllbnQgZ3JhZGllbnRVbml0cz0idXNlclNwYWNlT25Vc2UiIHkyPSIzLjc0IiB4Mj0iOC42NyIgeTE9IjMuNzQiIHgxPSIyLjk0IiBpZD0iYjcwYzljZjEtYmFiOC00N2UwLWJiZGItY2UxY2Q2NjRkMjY4Ij48c3RvcCBzdG9wLWNvbG9yPSIjYjc3YWY0IiBvZmZzZXQ9IjAiLz48c3RvcCBzdG9wLWNvbG9yPSIjNzczYWRjIiBvZmZzZXQ9IjEiLz48L2xpbmVhckdyYWRpZW50PjxsaW5lYXJHcmFkaWVudCBncmFkaWVudFVuaXRzPSJ1c2VyU3BhY2VPblVzZSIgeTI9IjMuNzkiIHgyPSIxNC44NSIgeTE9IjMuNzkiIHgxPSI5LjEzIiBpZD0iYmViNjk5NTMtYmQ5Ni00NTE1LTg4NDMtYWMxMjU0NmFmOTM2Ij48c3RvcCBzdG9wLWNvbG9yPSIjYjc3YWY0IiBvZmZzZXQ9IjAiLz48c3RvcCBzdG9wLWNvbG9yPSIjNzczYWRjIiBvZmZzZXQ9IjEiLz48L2xpbmVhckdyYWRpZW50PjxsaW5lYXJHcmFkaWVudCBncmFkaWVudFVuaXRzPSJ1c2VyU3BhY2VPblVzZSIgeTI9IjkuMTIiIHgyPSI1LjczIiB5MT0iOS4xMiIgeDE9IjAuMDEiIGlkPSJhMzljNzZlOC01NDdlLTRlYjQtYmMyNS1kODFjMGY4Y2RhNjIiPjxzdG9wIHN0b3AtY29sb3I9IiNiNzdhZjQiIG9mZnNldD0iMCIvPjxzdG9wIHN0b3AtY29sb3I9IiM3NzNhZGMiIG9mZnNldD0iMSIvPjwvbGluZWFyR3JhZGllbnQ+PGxpbmVhckdyYWRpZW50IGdyYWRpZW50VW5pdHM9InVzZXJTcGFjZU9uVXNlIiB5Mj0iOS4wOCIgeDI9IjExLjkiIHkxPSI5LjA4IiB4MT0iNi4xOCIgaWQ9ImYwYTJhNDkxLTE3ZGMtNGJiOC1iYmZjLWVlNThhNWNmNDdkYSI+PHN0b3Agc3RvcC1jb2xvcj0iI2I3N2FmNCIgb2Zmc2V0PSIwIi8+PHN0b3Agc3RvcC1jb2xvcj0iIzc3M2FkYyIgb2Zmc2V0PSIxIi8+PC9saW5lYXJHcmFkaWVudD48bGluZWFyR3JhZGllbnQgZ3JhZGllbnRVbml0cz0idXNlclNwYWNlT25Vc2UiIHkyPSI5LjEzIiB4Mj0iMTguMDgiIHkxPSI5LjEzIiB4MT0iMTIuMzUiIGlkPSJlZmM2YTU2ZC04NTg1LTQxN2QtOTMxYS0xZGFjMjExNGNjZDAiPjxzdG9wIHN0b3AtY29sb3I9IiNiNzdhZjQiIG9mZnNldD0iMCIvPjxzdG9wIHN0b3AtY29sb3I9IiM3NzNhZGMiIG9mZnNldD0iMSIvPjwvbGluZWFyR3JhZGllbnQ+PGxpbmVhckdyYWRpZW50IGdyYWRpZW50VW5pdHM9InVzZXJTcGFjZU9uVXNlIiB5Mj0iMTQuNTYiIHgyPSI4LjYiIHkxPSIxNC41NiIgeDE9IjIuODciIGlkPSJlMzk5YWE5My0zNDFmLTRkZjItOWMwMi02MDNiODJiNDg0YzIiPjxzdG9wIHN0b3AtY29sb3I9IiNiNzdhZjQiIG9mZnNldD0iMCIvPjxzdG9wIHN0b3AtY29sb3I9IiM3NzNhZGMiIG9mZnNldD0iMSIvPjwvbGluZWFyR3JhZGllbnQ+PGxpbmVhckdyYWRpZW50IGdyYWRpZW50VW5pdHM9InVzZXJTcGFjZU9uVXNlIiB5Mj0iMTQuNiIgeDI9IjE0Ljc4IiB5MT0iMTQuNiIgeDE9IjkuMDUiIGlkPSJhMTUyYmJhMC1iYTJiLTQ4M2EtYjhjMS0wYWU3ZGUzNTU5OTAiPjxzdG9wIHN0b3AtY29sb3I9IiNiNzdhZjQiIG9mZnNldD0iMCIvPjxzdG9wIHN0b3AtY29sb3I9IiM3NzNhZGMiIG9mZnNldD0iMSIvPjwvbGluZWFyR3JhZGllbnQ+PC9kZWZzPjx0aXRsZT5JY29uLWNvbXB1dGUtMjM8L3RpdGxlPjxwb2x5Z29uIGZpbGw9InVybCgjYjcwYzljZjEtYmFiOC00N2UwLWJiZGItY2UxY2Q2NjRkMjY4KSIgcG9pbnRzPSI1LjggMS4yMiAyLjk0IDEuNzUgMi45NCA1LjY1IDUuOCA2LjI2IDguNjcgNS4xMSA4LjY3IDIuMiA1LjggMS4yMiIvPjxwYXRoIGZpbGw9Im5vbmUiIGQ9Ik01LjkxLDYuMiw4LjUzLDUuMTRBLjIuMiwwLDAsMCw4LjY1LDVWMi4zNmEuMjEuMjEsMCwwLDAtLjEzLS4xOGwtMi42NS0uOUg1Ljc1bC0yLjYuNDhBLjIuMiwwLDAsMCwzLDEuOTRWNS40N2EuMTkuMTksMCwwLDAsLjE1LjE5bDIuNjMuNTVBLjMyLjMyLDAsMCwwLDUuOTEsNi4yWiIvPjxwYXRoIGZpbGw9IiMzNDFhNmUiIGQ9Ik0yLjk0LDEuNzV2My45bDIuODkuNjF2LTVabTEuMjIsMy42LS44MS0uMTZ2LTNsLjgxLS4xM1ptMS4yNi4yMy0uOTMtLjE1VjJsLjkzLS4xNloiLz48cG9seWdvbiBmaWxsPSJ1cmwoI2JlYjY5OTUzLWJkOTYtNDUxNS04ODQzLWFjMTI1NDZhZjkzNikiIHBvaW50cz0iMTEuOTkgMS4yNyA5LjEzIDEuOCA5LjEzIDUuNyAxMS45OSA2LjMxIDE0Ljg1IDUuMTUgMTQuODUgMi4yNSAxMS45OSAxLjI3Ii8+PHBhdGggZmlsbD0iIzM0MWE2ZSIgZD0iTTkuMTMsMS44VjUuN0wxMiw2LjMxdi01Wm0xLjIxLDMuNi0uODEtLjE2di0zbC44MS0uMTNabTEuMjYuMjMtLjkzLS4xNVYyLjA1bC45My0uMTdaIi8+PHBvbHlnb24gZmlsbD0idXJsKCNhMzljNzZlOC01NDdlLTRlYjQtYmMyNS1kODFjMGY4Y2RhNjIpIiBwb2ludHM9IjIuODcgNi42IDAuMDEgNy4xMyAwLjAxIDExLjAzIDIuODcgMTEuNjQgNS43NCAxMC40OSA1Ljc0IDcuNTggMi44NyA2LjYiLz48cGF0aCBmaWxsPSIjMzQxYTZlIiBkPSJNMCw3LjEzVjExbDIuODkuNjF2LTVabTEuMjEsMy42MS0uODEtLjE3di0zbC44MS0uMTRaTTIuNDgsMTFsLS45My0uMTVWNy4zOGwuOTMtLjE2WiIvPjxwb2x5Z29uIGZpbGw9InVybCgjZjBhMmE0OTEtMTdkYy00YmI4LWJiZmMtZWU1OGE1Y2Y0N2RhKSIgcG9pbnRzPSI5LjA0IDYuNTYgNi4xOCA3LjA5IDYuMTggMTAuOTkgOS4wNCAxMS42MSAxMS45IDEwLjQ1IDExLjkgNy41NCA5LjA0IDYuNTYiLz48cGF0aCBmaWxsPSIjMzQxYTZlIiBkPSJNNi4xOCw3LjA5VjExbDIuODguNjF2LTVaTTcuMzksMTAuN2wtLjgxLS4xN3YtM2wuODEtLjE0Wm0xLjI2LjIyLS45My0uMTVWNy4zNGwuOTMtLjE2WiIvPjxwb2x5Z29uIGZpbGw9InVybCgjZWZjNmE1NmQtODU4NS00MTdkLTkzMWEtMWRhYzIxMTRjY2QwKSIgcG9pbnRzPSIxNS4yMSA2LjYxIDEyLjM1IDcuMTQgMTIuMzUgMTEuMDQgMTUuMjEgMTEuNjUgMTguMDggMTAuNSAxOC4wOCA3LjU5IDE1LjIxIDYuNjEiLz48cGF0aCBmaWxsPSIjMzQxYTZlIiBkPSJNMTIuMzUsNy4xNFYxMWwyLjg5LjYxdi01Wm0xLjIyLDMuNjEtLjgxLS4xN3YtM2wuODEtLjE0Wm0xLjI2LjIyLS45My0uMTVWNy4zOWwuOTMtLjE2WiIvPjxwb2x5Z29uIGZpbGw9InVybCgjZTM5OWFhOTMtMzQxZi00ZGYyLTljMDItNjAzYjgyYjQ4NGMyKSIgcG9pbnRzPSI1LjczIDEyLjA0IDIuODcgMTIuNTYgMi44NyAxNi40NiA1LjczIDE3LjA4IDguNiAxNS45MiA4LjYgMTMuMDIgNS43MyAxMi4wNCIvPjxwYXRoIGZpbGw9Im5vbmUiIGQ9Ik01Ljg0LDE3LDguNDUsMTZhLjE4LjE4LDAsMCwwLC4xMi0uMTh2LTIuNkEuMi4yLDAsMCwwLDguNDQsMTNMNS44LDEyLjFhLjE3LjE3LDAsMCwwLS4xMiwwbC0yLjYuNDdhLjE5LjE5LDAsMCwwLS4xNi4xOXYzLjU0YS4xOS4xOSwwLDAsMCwuMTUuMTlMNS43LDE3QS4yMy4yMywwLDAsMCw1Ljg0LDE3WiIvPjxwYXRoIGZpbGw9IiMzNDFhNmUiIGQ9Ik0yLjg3LDEyLjU2djMuOWwyLjg5LjYyVjEyWm0xLjIyLDMuNjFMMy4yOCwxNlYxM2wuODEtLjE0Wm0xLjI2LjIzLS45My0uMTVWMTIuODFsLjkzLS4xNloiLz48cG9seWdvbiBmaWxsPSJ1cmwoI2ExNTJiYmEwLWJhMmItNDgzYS1iOGMxLTBhZTdkZTM1NTk5MCkiIHBvaW50cz0iMTEuOTEgMTIuMDggOS4wNSAxMi42MSA5LjA1IDE2LjUxIDExLjkxIDE3LjEyIDE0Ljc4IDE1Ljk3IDE0Ljc4IDEzLjA2IDExLjkxIDEyLjA4Ii8+PHBhdGggZmlsbD0iIzM0MWE2ZSIgZD0iTTkuMDUsMTIuNjF2My45bDIuODkuNjF2LTVabTEuMjIsMy42MS0uODEtLjE3di0zbC44MS0uMTRabTEuMjYuMjItLjkzLS4xNVYxMi44NmwuOTMtLjE2WiIvPjwvc3ZnPg==;" vertex="1" parent="1">
          <mxGeometry x="580" y="352.5" width="70" height="70" as="geometry" />
        </mxCell>
        <mxCell id="IR0dK76-OblaRV8fg7Rf-35" value="" style="sketch=0;aspect=fixed;pointerEvents=1;shadow=0;dashed=0;html=1;strokeColor=none;labelPosition=center;verticalLabelPosition=bottom;verticalAlign=top;align=center;fillColor=#00188D;shape=mxgraph.azure.laptop" vertex="1" parent="1">
          <mxGeometry x="70" y="550" width="50" height="30" as="geometry" />
        </mxCell>
        <mxCell id="IR0dK76-OblaRV8fg7Rf-36" value="" style="whiteSpace=wrap;html=1;aspect=fixed;shadow=1;fillColor=default;" vertex="1" parent="1">
          <mxGeometry x="370" y="330" width="110" height="110" as="geometry" />
        </mxCell>
        <mxCell id="IR0dK76-OblaRV8fg7Rf-37" value="" style="shape=image;verticalLabelPosition=bottom;labelBackgroundColor=default;verticalAlign=top;aspect=fixed;imageAspect=0;image=data:image/png,iVBORw0KGgoAAAANSUhEUgAAAOEAAADhCAMAAAAJbSJIAAAAwFBMVEX///9/ugCSxCVYtNl2tgD//v/h7s3M46qAugCQwxzg7sSJvx57uACs0WeRxBefymG62Xb9/vn5/PG42H7o8tSgy0Xw9+KlzmGLwACv03KOwilMsNdYtdjy+fzt89qcyT6lzle62YXX6LLf7b70+eno9Pl+xOFsvN3N6POFx+Kt0mDf8Pe+2omlz0+m1+qDxuGXzuW43u/F35nP5aa01mjU6vSayTOj1OuUxEHA4u6byFTG36KTxTW+2ZLJ4p6VxUcMBwrrAAASPUlEQVR4nN2daUPiOhSGqRRtoXIFkamWIiKroIKOepnt/v9/dbN1y54Stnk/OCPQ0rfn6UlyktZKZb9qtfb8hftUqzO8uFg+vF0MH0eHPpad6M/lvd8Mm0D+2eC6fujDsaca+nn+PQTGUvl++HnxNwVy9Ja3R0yGz+eHPi5r6g6atD/k8fP90EdmSZ2QCSBR+P2vyKz1e5FBYPG6fejD214diUFA6vXJR1GMKIni04lbPJdG8C8AVY7oXwCqCtGTB1WN6ImDqoPoSYOqh+gJg6qL6MmCqo/oiYJqgiiJ4mmBaoYosXhKoJoiinVCoAoQ9YGaSR2DG8VTAZWLqB82b55ur5c/L36+La+fz0KeyxMBlYMosPd92B2127iW2GqNuufLmzD06U+eBKgMon7z/iqtrNXyH328vqEjeQKgMoiG928dylmm/vszVcI5elBpRJvhu7xo2H4Pix6PHFQKUf8si0g8/niZVCOg3nT+MhvHyRvt5Wdho6MGlULU/3wkb8TxYt6Lomoi8N/5epZsVqcsHi+oFKLhU4e8Ma7EtXnmr9pDLnvzDXm//xSeBKgUos0lPs74ZY7+fa0yinozAuuyWTw3R2mRRvQ3fnkziaooVvEkSuNHfgKPc8Lq7+MHlUK0+YZffoE+pihS42nmDP3bg3mnusYtyXvx/BwfqDSieEpiPIl6wE00wb9Vc7mmOp3OV19A89UYvfteuBaPDlQK0eYSvUrABH7W6PePaZpk1rNF2l6MscXr4rV4XKDSiN6iAIwnacx6+HLboJZius5aQ6QY/dq+LVg8KlDphn6A+jHj13wD8YE+OYumqwX8T7Ebhy2Ongu7CQbHYBEdKN0XDdHUZ7yY5BsGnG0qmwV3P9hiPX8pNhz3CEBFBvt0X/QKvhrHMHfmLM7jdKNaPoaL9cvqdY7fvcpx6jhOcByg9qnhkv8Mz3wtrhQdVqNVTG1Zixcvkwg1GdXoC77Svkn35QGHjnsMoDIDXv8CvgwyZTwpOKy+jpNtcAAXX5O0qwpSLLpQ01bRd7DFw4NKIwrSDAoh6KnF83xPlA7h5nUa5Vv/6hS+miQb38EODw1qjUEUpBk0nnhZgR9fuVxaXec3HG+AvV61INBmgtj+CQmjyKB3SFC5WRSeffh6PIWX1TpzOJ0VNl5HVVZTSHEbOWwEDpZ3OFC5WRQm0mv4xgYljlkGKd1GvETVKh1E3EG/Arv0Pc/JLB4QVBZRcHDdCuqtrdA/5NAn42wj3PLxoojbk36T5NFcFA8FKq+y7T9BpGZRFfW1V8hGNMlFcDEnKfWFxRRFGuSahuNQFg8DKgfRZNAExvOTGIC8wI1dnDXwH9MoMbzuUZz2ohf4+u+QNngQUHlZFAllUnDgU9S8zdebzTrrh8Yku+K0M2OjCF9+9BxKewdVlEWh7mFpZhzRrQNWvEouPlygWTNXIjwZ9QbtcN+g1qBDLqJJc7+BvbBVfvSAI5gVo3qIx8ospRT/J4LOu/8GPIt7BlWA6Jl/C99FoeqNU2tYH71c+owmuLABujKT+SSt2qDO6T+sw72DKpwf9B/g25PMQqYF1Q/HLcjHBvwTz1bkVVSVu+Q43DOoXeEEKKpe4GYQXWq5EL7kKm1I03wvAL+L25hrfgz3CGpXPEePGosxrMZM6K3GTBMfbXJv4ySEOm5/XE4Mc6AKZnmsCO1bNoXd/IMdVqsrZuMp7ZAMmMgJmKZxfec73AeoyKAY0TNSRIQHixvvgiaMwTynONGiGIoc7imjShAFCqFDkFN6BQKhapUVg2khGa3VDoFFz911HVWxyiIcYofViKWUjWHhWkUOkWexwz2AKkU0cYguqTmzLTPkxRFLtIp6xOGS11oQg8GOQZUjepbUul/po4fasMMlVCYmmTH+Srm9EjokUdwJqMosipX1afKpBm5Ml6VQczHPJf4YjjXELX5euwBVnUWJQ9QvfYl6PTqItRde4eIr/5EZPi2tH4oY7gxUJaJQaGwxg2Yius3fcBrE6BXNYIxfIjjHNkYjx84vVQy93YCqt1btE66ciVG4mFyzmHMqF735ev0F64pwOgNVONjxIe9atA+qBqJQTZhMUfclygaIyVR2zDSJvWoVl7x71Wg6q6DP/VSF0NkBqDU9RIH8q3SAiK/DzbQXRWnnZYFnTPMOc/FcwV5cexAog7iDjNq50TMIMIUTa7BFJJkGkRlNkx5o/AUNv056vLyDKlHdMCl3K2QV1K62wbMQLWFbRaSIj8YZsGyTMrtYfcRxPOZVE1E/6EIHUrsZVR9RhOkz3GZGhuto0hcfPj0i/pgyXRzEcqh1GTpWM6o+oiiIsCQMgoiDlrWC0XRDTc3Q8xYohB1xp5SNoyVQDRCFaqJCxhg7TKaf8PTSpNAJqE2KoKJCW+VWN4SONVBNEEVCjX5ljYZPzCRp3uPHfDIFjQUps+FuHqeUKI/i9qCaIQrlP8AvjVFExjSJvcLO48Vm/bV6nUwm8681ZLjFq9FItTWohohii/108wWdMSP2K2IidD6N3G2fUc2yaObwU+KQHlSlPlGlWTuR5lxuBao5okjhGzlB7Bxabuwf583iNLvUTqT5OG4BahlEkT7PyWGz7Xov7d3Mp/OXzcc4ORlAda2+DKvSoJZCFMn/RPm0FnN6Lj2UUmpjOJ6IsHq47Tw3ZzSJYjlQSyKKLd5gcGZscQaM7Nfr9So/eYi7P6NfGl1ugUqBWhpRpCYBZ1PldLHxgCmZbyILTEffSkWwfEYtjyhWeInvQoD1mSyMPSqk4PdXPEPc/888y+RdupeGBrdBlERxQCxuJryREonmlFSOO/eBpzdoEsXRfTACdTtEE4tkqX68mWY3IuRjGPW+SGdcXZvR0IMBqNsiiuWHb61kCdsKDPULi9ij6nSSVP5bb0GgOewVBhFG8VLb4vaIEoVXyR0XlfHsaz5NmgcwzF9lC037t66zpUEsbVBtIErk319n+43H48XHZr2ZfXwsckPF5V1gwR7OqA96Bq0gmqjZfJOd2NGF7wbZIW4rrYxqDVEi/7kv+ba6Z9GfXka1iCg2eNPlfk8NLVqpVYYe7sl423lM1moCUBXpxi6i0KAqv8Eoels7JD7VGdU6ogN+BPMaNiyC6ihAtY+o7BpMLXoWmnssVUa1j6he+4TTja0YSjKqfUQ1Ioj6PMOGtSjKMuphEMWyBKo8ox4KUay6vWtRlFH7h0A0H0WboDocUKnbxrZWEyBaM1qCNrSXbngZtSV42khZmSGKBStt9vIpiOJt3uA19/Gb5Q0aIppkVIsWwcXoPmY7r1v1l8uiZgslL+z4SzJq8CsdnVq+CP37sjXoR2erag1tNEgT6rtVRo0RzUfRbkYNkqfGWI6gaRYtWHS2rdgUHN7gvQ5D9XEbGNxuPu/RajfcxTjdWozhNoiSKFqKYK5RHA3sOYSIYikpbYsWpV9Y7MAFP+C31D8tGhQh2mWe3X3+TfRZaUb1jPoFwR383qFRCP3BUvh5MaKjwZBxmPY5mEDyMyp0Hfxa3hkF0YPfe2HUVviXrStBZvLvO4Is2r4MOQ5d4VhclFGDoFtvGKXaAN5Y/mboEN/IyjM44ocEPpPd5zh0glshqJxrEUTwrm+2HAU4/An29tvYYeua91C9QUdwuO2n5lnzguMQWBRGkRfBu47hghuwze9SMaxwQPXvE4N0DNu34MMO16GkaMRm1CCAV7kppdCh6XWIDoAGNUGU1QhE8KwR8B3KQAUZFXpJCqneHUpjZSg1zKXYIQWqHNEz3xM59AJhRn1PC/4oi97hbzB1CL/XrD0kDougSrIoeqqO54gcykB9dzJQMaI1Y4eotTAbO/lpLTIDVZJFYQTPGo7EoRxUEsXgLmlpzRwG/6LtjPqlmcMUVP9Ziih80oyQUmxRsHkKaoKocQyDH3g/JmOLzGECqiyLIoOogCm6DtFxCECtEVBTRCumDl38RK6KSTL18xVz9AwLeRZFjEopdRSgBt5drjNo4BAWMsh+3wyCWHAIQFUiih/EInfoSDPqXf4b9B16sIxBtup+6l+JBYcA1E95FkWMqh1KM2qGqJFDqPTcPJaMITw7ggPrksdZkgNSORSBypw6I4dv6WatK+1LkXYoUIKo72k6lGTUglMDh8G/uQzR0p6W4Tvk9kUJoxqUot4ZH9QatXcDh24hQ4x0J2a0YkiyaMqoTgxzoMoqIJoO4f201ICtr9mz0XHYvkygT8cBOg49Oaj6DnFyW9LzayM9UDUcttMuazbO0XGYy6jiKGo6ZCcQa7pzwGqHozSCuYPRcyhp+k0cgv04V7zzpDWPr3SYIZp7YpeuQ0VG1XboCJYM60x0qxy2s4YnPxbXug7hj6QnuZVD90q0akgDVIXDDNGzwqHoxhBGUbqmScvhlXh7NahChwj6DNG0rTd1qABVx6F0aZsSVLHDWrFvVKwXGTj0AhmoKoee4yqW7atAlVHavswGKVRBTN8hnJ6WWFTG0LsWb4ylAFXqMCtP+dT3GsXwTvIHSpUx/K0yqAJVmmlanLbe2CEe0Zd0qErFxKIsiopcSspTzGEYUHonnYGUOgwcLYNyUBUOW8higylLazuUIipxiPuib7r3I0hAVbX4LZht2Lq7bosvR1TiEG7rvsm3LVgURlHdL/3uc+Y3dfulckSlDgPPwKBkIZ/aYeuW9/V6YwuCqGSAKHAIIf1jYlB8B7DCITy21oA9eC2HSkTFDkEWNTIIJQBVa4w/YOY3ta5DJaIih54XeCX+AjY/o2o5bDGPetJwqMqiEofAY6k/8c0FVa/WxoCqrkTpIFoROXRL/g1zHqia1UQaVHW9VAfRCt9hKUSxOKDqOqRAVda81VkUi3HolUUUfxv7rFldh9Rj1xQOPU99bw3ZjI2hy+zbRCyo91cSfX/KZOSwcdbUlJNfaQNrzd5WBnmg+mKFQV4mlDqBppgIbmvQ7D4M8ToQg9GTUoVvcZmlSCUsat+J4YkOQ01pSadBw4JB/fuhfMmqSZsxzMmKwZo2qLJA7MRhYANRLC1QpaTtwqHXeOQdbDlpgErXnnbt0LODaCrRY+YzyY/HusPslhhrFhVRTG/925PDwCaiWHJQVXVayw4BorYNcvuouYtQ1aBZdhi4dd5RbisJqMoW255DNJZs7MSgBFT1fJA1h563k2swkQhUdafLnsOdIUoscqOo0au05dDbIaJYPFB1ZmXtXYe7NcjPqFrHZSuGnqtTkdtKDKhaIx9bDoPGzg0yoOqt/rDlcLfXYKICqMq23qbDYPeIEou557Nrjs6tOAwa6YL2XSt7xr7uWkgLDuXz+7aVgMofFPJqZByHOpW0/F7dDrPadJcWcRT593r+9w+jb0yG6P9gP3UrZB580Z1oyfyOhEBt4C+nT7bGMlHBTsXPaN0rolDo7x+KCheufGmaUPUG/+l7qC+67T3ipoK9m3vR+Xbcb6K7TKidFK4pdIezKIL7NojUuRMz9c08inXh4xSom0r2qL4rfGiOFqiFCAJERfeoB67uzJR19dMoMoemCSpWLbsTjxfCXwczCBo1IageBFW/6aqLDR4MUay+uJXWz6g1URZFt8cG3X018nz1+VH0jECVIBocElGcKsSgamVU9BAnmcGDIorVcYUPzdEBVYgoMuiMDosoVmeLjCrLovBBHwYJeZfaKqOKEEUP6zpIT4anjlsyoyoRPRoJOnDqjDqUJRnRXf4HUZmMWpNkUc8L7o8GUaxSGfVUEMUyzag1IaJodkl4l/8BJQWVd1uhLIveH7QnI5Iko7I3pIn7otBgeIQRhOJnVI8PqqwvWuLpp3uSLqiyLAoNHiWiWNpNvyyLhvhcHEk7SKsjeDynlwNVnEVRX/R4EcWqi59AmoHKRxTduhQ8HzGiWBBUAX8YVHlfNDzyCEKd4yjyLGBQZVn0+QQMKkGVZdHnI20HaUkz6vDEEcUSZVToQtLxGZyMQSmoQgWDE0EUSwIqX17gn1AEoSQZVRDBEzNoCqr7dFKIYpmAGpxZ/VPw+xIYTGlA6gEFg5M0CEAVD6byFk8TUaxzcXkq8+e4nycaQahzjXRTZkb8iIQyqjSKrvLhV0etGgZVZvD5pCMIhUEVLiMpufTmqFSXNBonjmiiDv5LsZwHnrin2g7Sal/y/mSFF/yyevPZQdUaNlz6Wgyc2yObXNpO3Qcw9E0DGQSB+1n/SwjNNLz9r4EX13q//lkewRKLHaj9OPz5cP374vHvtEfU2jub/wMAHbnjqb8RMAAAAABJRU5ErkJggg==;" vertex="1" parent="1">
          <mxGeometry x="397.5" y="347.5" width="55" height="55" as="geometry" />
        </mxCell>
        <mxCell id="IR0dK76-OblaRV8fg7Rf-40" value="" style="endArrow=classic;startArrow=classic;html=1;rounded=0;entryX=0.5;entryY=1;entryDx=0;entryDy=0;exitX=0.92;exitY=0.5;exitDx=0;exitDy=0;exitPerimeter=0;" edge="1" parent="1" source="IR0dK76-OblaRV8fg7Rf-35" target="IR0dK76-OblaRV8fg7Rf-36">
          <mxGeometry width="50" height="50" relative="1" as="geometry">
            <mxPoint x="470" y="340" as="sourcePoint" />
            <mxPoint x="520" y="290" as="targetPoint" />
            <Array as="points">
              <mxPoint x="425" y="560" />
            </Array>
          </mxGeometry>
        </mxCell>
        <mxCell id="IR0dK76-OblaRV8fg7Rf-41" value="" style="endArrow=classic;startArrow=classic;html=1;rounded=0;entryX=0.25;entryY=1;entryDx=0;entryDy=0;exitX=0.2;exitY=-0.018;exitDx=0;exitDy=0;exitPerimeter=0;" edge="1" parent="1" source="IR0dK76-OblaRV8fg7Rf-36" target="IR0dK76-OblaRV8fg7Rf-22">
          <mxGeometry width="50" height="50" relative="1" as="geometry">
            <mxPoint x="470" y="340" as="sourcePoint" />
            <mxPoint x="520" y="290" as="targetPoint" />
          </mxGeometry>
        </mxCell>
        <mxCell id="IR0dK76-OblaRV8fg7Rf-43" value="" style="endArrow=classic;startArrow=classic;html=1;rounded=0;entryX=0.5;entryY=0;entryDx=0;entryDy=0;exitX=0.5;exitY=1;exitDx=0;exitDy=0;" edge="1" parent="1" source="IR0dK76-OblaRV8fg7Rf-22" target="IR0dK76-OblaRV8fg7Rf-30">
          <mxGeometry width="50" height="50" relative="1" as="geometry">
            <mxPoint x="470" y="340" as="sourcePoint" />
            <mxPoint x="520" y="290" as="targetPoint" />
            <Array as="points">
              <mxPoint x="410" y="270" />
              <mxPoint x="615" y="270" />
            </Array>
          </mxGeometry>
        </mxCell>
        <mxCell id="IR0dK76-OblaRV8fg7Rf-44" value="" style="whiteSpace=wrap;html=1;aspect=fixed;shadow=1;fillColor=default;" vertex="1" parent="1">
          <mxGeometry x="510" y="140" width="80" height="80" as="geometry" />
        </mxCell>
        <mxCell id="IR0dK76-OblaRV8fg7Rf-46" value="" style="endArrow=classic;startArrow=classic;html=1;rounded=0;exitX=1;exitY=0.5;exitDx=0;exitDy=0;entryX=0;entryY=0.5;entryDx=0;entryDy=0;" edge="1" parent="1" source="IR0dK76-OblaRV8fg7Rf-22" target="IR0dK76-OblaRV8fg7Rf-44">
          <mxGeometry width="50" height="50" relative="1" as="geometry">
            <mxPoint x="470" y="340" as="sourcePoint" />
            <mxPoint x="520" y="290" as="targetPoint" />
          </mxGeometry>
        </mxCell>
        <mxCell id="IR0dK76-OblaRV8fg7Rf-49" value="" style="whiteSpace=wrap;html=1;aspect=fixed;shadow=1;fillColor=default;" vertex="1" parent="1">
          <mxGeometry x="660" y="140" width="80" height="80" as="geometry" />
        </mxCell>
        <mxCell id="IR0dK76-OblaRV8fg7Rf-53" value="" style="shape=image;verticalLabelPosition=bottom;labelBackgroundColor=default;verticalAlign=top;aspect=fixed;imageAspect=0;image=data:image/svg+xml,PHN2ZyB4bWxucz0iaHR0cDovL3d3dy53My5vcmcvMjAwMC9zdmciIHZpZXdCb3g9IjAgMCAxOCAxOCIgaGVpZ2h0PSIxOCIgd2lkdGg9IjE4IiBpZD0iYmRkNmUxNWQtMWE4YS00ODJlLThkMjktNTAzN2ZlZDQ3ZGU3Ij48ZGVmcz48bGluZWFyR3JhZGllbnQgZ3JhZGllbnRVbml0cz0idXNlclNwYWNlT25Vc2UiIHkyPSIxMC4xNiIgeDI9IjE1LjQxIiB5MT0iMTAuMTYiIHgxPSIyLjU5IiBpZD0iYWQxOTI5MzMtN2M0MS00NjI3LTk0YjAtYzI3NTRjYzNiM2ZiIj48c3RvcCBzdG9wLWNvbG9yPSIjMDA1YmExIiBvZmZzZXQ9IjAiLz48c3RvcCBzdG9wLWNvbG9yPSIjMDA2MGE5IiBvZmZzZXQ9IjAuMDciLz48c3RvcCBzdG9wLWNvbG9yPSIjMDA3MWM4IiBvZmZzZXQ9IjAuMzYiLz48c3RvcCBzdG9wLWNvbG9yPSIjMDA3OGQ0IiBvZmZzZXQ9IjAuNTIiLz48c3RvcCBzdG9wLWNvbG9yPSIjMDA3NGNkIiBvZmZzZXQ9IjAuNjQiLz48c3RvcCBzdG9wLWNvbG9yPSIjMDA2YWJiIiBvZmZzZXQ9IjAuODIiLz48c3RvcCBzdG9wLWNvbG9yPSIjMDA1YmExIiBvZmZzZXQ9IjEiLz48L2xpbmVhckdyYWRpZW50PjwvZGVmcz48dGl0bGU+SWNvbi1kYXRhYmFzZXMtMTIzPC90aXRsZT48cGF0aCBmaWxsPSJ1cmwoI2FkMTkyOTMzLTdjNDEtNDYyNy05NGIwLWMyNzU0Y2MzYjNmYikiIGQ9Ik05LDUuMTRjLTMuNTQsMC02LjQxLTEtNi40MS0yLjMyVjE1LjE4YzAsMS4yNywyLjgyLDIuMyw2LjMyLDIuMzJIOWMzLjU0LDAsNi40MS0xLDYuNDEtMi4zMlYyLjgyQzE1LjQxLDQuMTEsMTIuNTQsNS4xNCw5LDUuMTRaIi8+PHBhdGggZmlsbD0iI2U4ZThlOCIgZD0iTTE1LjQxLDIuODJjMCwxLjI5LTIuODcsMi4zMi02LjQxLDIuMzJzLTYuNDEtMS02LjQxLTIuMzJTNS40Ni41LDksLjVzNi40MSwxLDYuNDEsMi4zMiIvPjxwYXRoIGZpbGw9IiM1MGU2ZmYiIGQ9Ik0xMy45MiwyLjYzYzAsLjgyLTIuMjEsMS40OC00LjkyLDEuNDhTNC4wOCwzLjQ1LDQuMDgsMi42Myw2LjI5LDEuMTYsOSwxLjE2czQuOTIuNjYsNC45MiwxLjQ3Ii8+PHBhdGggZmlsbD0iIzE5OGFiMyIgZD0iTTksM2ExMS41NSwxMS41NSwwLDAsMC0zLjg5LjU3QTExLjQyLDExLjQyLDAsMCwwLDksNC4xMWExMS4xNSwxMS4xNSwwLDAsMCwzLjg5LS41OEExMS44NCwxMS44NCwwLDAsMCw5LDNaIi8+PHBhdGggZmlsbD0iI2YyZjJmMiIgZD0iTTE0LjI1LDYuMzJjLS4zMywwLC4wNi4yNS0xLjExLjNTMTEuNTYsNy44NywxMC44LDguODhhNC45Myw0LjkzLDAsMCwxLTMsMS40MSwzLjY3LDMuNjcsMCwwLDAtMS44OCwxLjM5LjkyLjkyLDAsMCwxLS43MS41MmMtLjI3LDAtLjg2LjA4LS44Ni4wOGEzLjM2LDMuMzYsMCwwLDAtLjcxLjI0Yy4wOC4zMy43NC4xOS43NC4xOWE1LjI1LDUuMjUsMCwwLDEtLjUyLjQ3LDIuOCwyLjgsMCwwLDAsMSwuMDVjLjQzLDAsLjc2LS40MSwxLjU1LS44NHMyLjYxLDAsMi45LDAsLjcyLS43Ni44Mi0xYy4wOC41NC0uODIsMi0uODIsMmEyLjExLDIuMTEsMCwwLDAsMS42Ni0xYy4wOC0uMS4zMy0uNjIuMzYtLjU3cy4xNi4xOS4yMS4xN2ExLjg4LDEuODgsMCwwLDAsLjI1LS4yNyw3LjU4LDcuNTgsMCwwLDAsMS4xNC0yLjQ4QzEzLDksMTMsOC4xMywxMy42LDcuNzdzLjY4LS42OS42OC0uNzJWN2ExLjYzLDEuNjMsMCwwLDEtLjM5LS4zNS4xMS4xMSwwLDAsMSwwLS4xMS43Ny43NywwLDAsMCwuNDguMzhoMFMxNC41OCw2LjMyLDE0LjI1LDYuMzJaTTEzLDcuMzhoLS4wNmEuMzYuMzYsMCwwLDEtLjMtLjA4LjQ4LjQ4LDAsMCwxLC41Mi0uM0EuMy4zLDAsMCwxLDEzLDcuMzhabS41NiwwaDBhMi44MSwyLjgxLDAsMCwxLC4zMy0uNThsMCwwQTMuMTIsMy4xMiwwLDAsMCwxMy41NCw3LjQyWm0uMzYtLjUxLDAsMGgwYTEuODEsMS44MSwwLDAsMC0uMDguNTFoMGExLjY5LDEuNjksMCwwLDEsMC0uMzgsMS40LDEuNCwwLDAsMC0uMTYuMzloMEExLjM0LDEuMzQsMCwwLDEsMTMuOSw2LjkxWiIvPjxwYXRoIGZpbGw9IiNmMmYyZjIiIGQ9Ik0xMi4yMSwxMS41MnMtLjQ5LjQ2LS41MS42Mi41NC40MS44OS4zMkE3LjU4LDcuNTgsMCwwLDEsMTIuMjEsMTEuNTJaIi8+PC9zdmc+;" vertex="1" parent="1">
          <mxGeometry x="675" y="155" width="50" height="50" as="geometry" />
        </mxCell>
        <mxCell id="IR0dK76-OblaRV8fg7Rf-54" value="" style="endArrow=classic;startArrow=classic;html=1;rounded=0;entryX=0.6;entryY=1.05;entryDx=0;entryDy=0;exitX=1;exitY=0.5;exitDx=0;exitDy=0;entryPerimeter=0;" edge="1" parent="1" source="IR0dK76-OblaRV8fg7Rf-30" target="IR0dK76-OblaRV8fg7Rf-49">
          <mxGeometry width="50" height="50" relative="1" as="geometry">
            <mxPoint x="470" y="340" as="sourcePoint" />
            <mxPoint x="520" y="290" as="targetPoint" />
            <Array as="points">
              <mxPoint x="710" y="385" />
            </Array>
          </mxGeometry>
        </mxCell>
        <mxCell id="IR0dK76-OblaRV8fg7Rf-55" value="" style="shape=image;verticalLabelPosition=bottom;labelBackgroundColor=default;verticalAlign=top;aspect=fixed;imageAspect=0;image=data:image/png,iVBORw0KGgoAAAANSUhEUgAAAOEAAADhCAMAAAAJbSJIAAAApVBMVEX///8pef8DqfQJcP/S3v/p7/8Abv+xz/8ApvQApPO04/tqxvgAo/MJr/V6y/gkd/8Yc//J3f+ry/+20v/z+P/s8/+Hr/9Ojf81gP+Pt/9un/8XrPTw+/9jwvee1PlXwPesx//V4//h6/8+hf+Zu//j8/3Z7v1elv/F2P9Wkf+Os//A5vyhwP9/qv/r+f6q3vuN0fk3tfXK7Pyg1vrc7/1rnv95xvfugDpeAAAIUElEQVR4nO2dfVvaPBTGKd0k1dJWBDcFB6hsOjbe3OP3/2hPaRBKm7R5OSf1gnP/1cmw18+0Ocmdk5NWi0QikUgkEolEIpFIJBKJRCKRSCQSiUQikUA1+AqvQdNQBw2eXz3/Alq+9/r8SSAnXhLHHrziOPEmTcNtdesj0H3Iv20ar9V6xgRMEZ+bBpwmGA/oQXEybZjwV4IK6HnJr2YBb3Cf0a38myYB+0+4z+hW8VO/QcI/+E3YbGczQO5muOKkucB/j93NcCX3TQFOL5wAet5FUxHjm4tndKv4WzOAPRfdDJffawKw/91VE6aN+L2JiHHnppvhSu7cAz567powbUTv0Tmho0jxIfcR49pdN8PlXzsmdBYpPuQ6YkxcBfuD/IlLwL5zvq1cRoxbt90MV+LQs3l03c1w+e4ixi/X3QxX7MzQeGmmCdNGfHFEKLEuYiupEMZPbgD/CLuZOLFiVBsDJn9cAA7E9/5rOUv9reaIuDA0/oqaMLF2izp3KojJXwiEak1Fr0z8av17ezcqiHGMb2gITe5kYv17e52bO4X+Bt8CF5vc/hfrX9zrpIgKQyV0C1xsXcAQpoj1kRY7YkjW0oAIOzcKa3W4FrjM5IYi7Ch0N7GPGTHuJbcHI1TpbmJEQ0NqcsMRqiAiWuBS6wKQUOFBxTM05CY3JKFC0MCywCtMblDCekQsC7zivrCEadCoMbqS3wA8JT1W9AAAhJ3OEWJ1K8YxhqEhixRAhC/HiDXdDUbEqDS5AQgHPS1EBEOj0uQGIGw9dnrHiNWNCB4xJpUDRgjCVn96nde0+l2EtsBrTG4QwqKmNaNw2IhRY3KjEH6pJoS1wB9r4lMThN4FZMR4rRkpNkIIYA7tVWty1xPORsWfjOarVbS6XEi/UkcIGTFq8/NqCGdv4/Cy8LPVMAwYYwG7mkm+VUsIZ2iITW5Vwtly3E5JjgkX66C9ExvODQnBLHCxya1GuLgcDwOWchQI16yd009DQigLXGhyKxHOH4Zsh3JMGGUtyIIw+5StTQlhLPCpiokpJByxQ0sdEc744znebFYZauklVSX0QLLAVZZDJYS5B/GI8I3tW26VXY5NCSEihlImt5yQsW6ZcJy9mcvt5SLMPjUl9C6sLXC1/DwJYdBerzatbpFw1M31L9l1uDEltDc01DaMSHqa5WzPkCfkr+GQx/qsPdnSlNB6XU8xk7sy4pcJs+5lODoQBm/GhLZZ4FXWhTHhvzBH+JC14Q9jQi/+zwZQNZNbj/AnKKGdBa6an9cooc3wtNq6+CyEFoZG/7viLRom9Iwjxm/l/LyGCU0t8CqT24pwViK0iBZbmVrgGpncmoSsGPED84jPEY0scJ38PD3CxTAb1PC5/bo8t9InNDM0dDK59Qh3VHwsmrVnKHIydAhNLHDlSGFAGGW9S7S9nGcjuK7oezqEBhGjr7VhRJNww02aefrA8g9X1oSxtgWul8mtSbizadh63OYXQrtNi1Db0BjopQHrEm64vbFzOcRNqEnoaabZ1KzB2hK2lnszMf3oSvw9TULNiaLmHu1qQpaqaDbNucmY8klaUJtQszvV3E9RSXg13qrkUyzH7TBk65XM8tYl9BIdwD4koalQCUHb8HMSQr6Hjgg130PIvtQRoWZfChkPHRHqpp0CjmncEGov0gCOS50Q6o9LAecWTghN3Ciw+aGpsOeHcHN8U6HP8YF8mtkyen+vSLmYiZaddAkNUxU1qiZICX+OtwkXjAXtqJRu0sqyGIIHe0LjdFN7v/SyvV/nDrrFIfYiS9JgkrmTC7/U3vPe5DMuWDffiqPLBz5/giA0XyW1XbfoZoRByFMuguiAftXeTQ8hCG0SMe3WnvhEnr0tZlcs55CmOuQLARBaJdParR9mfhOfwo8Pl/t/QhHabaGxWQMe8VyZ7O27DNr5zKCUkLFuF4TQbg3Yah1/kzN7/2Xt1f2Iimu2TdKIIHoa62puFrkYy0Ne0G6pYu+LzrMLEELr7YgW+TRv2ZPJ051GGWH47+g/QBACbBC6UelshIQ/yoTHSYgQhPY5URZ5bT9YkTAAJwTJhDbOTXRBCFOh1jS/1AEhUIkF0xxhF20ItOnZMM8bv6eBK3VilqsvIISNFoDFB17qIoY44pcICyuhtoSQO/TqIoaQMBuLtvmY5iilFIgQcs+M2b6nfIIznwsXcvItCUH3PZntXcst/uayL6AIgcu3Ge0/5FsNhrOtX5PBFmw1yzYE3rFusod0sZvjrj9SLwqfWxHCl1E02Qecz0dIWYqbf2wIESpHGO3ljsIDYDl3zYYwQShOZ7Qff8l4zgwLu2VvOwq3XrERIUoFF7OaCqO3cTsMug+i5MPlexRF76LEy0wVhDg1FZDrYpRVQYhTFwO5tklZckK08t6o9WnKkhPilWjHrDFUlpQQsWgyZp2osqSEmEclINb6KktGiFnrqzXw0eq1lSUhxK3XhlhzrywJIfaxM2JDwyEheqVdtNqXZYkJ8Y9/wqpfWtZEeCf8itdYNWjLEhVUcVGDFquOcEnCBFAXdYRltaDvYf+4U0m+kpPDrVDqeRfLl4vXnt3U80aqyV5iFN3BUU32M6irj3+so1juzkY4g/MtTv+MkjM4Z+b0zwo6g/OezuDMrtM/d+0Mzs47/fMPz+AMy9M/h/QMzpI9g/OAT/9M5zM4l9vR2eqOrAuxNPd8myh+aiRSfEipMqad8E3uaqEbGg5M7mpNkTubGCaT20ZqW06Mhb2WpqJbTETfpTcj1cRL1GvXaSiOE2/SNBzX4PnV8y+g5Xuvzw2G+qIGX+H1ifBIJBKJRCKRSCQSiUQikUgkEolEIpFIJNJp6H80p8tReCPBYwAAAABJRU5ErkJggg==;" vertex="1" parent="1">
          <mxGeometry x="512.5" y="142.5" width="75" height="75" as="geometry" />
        </mxCell>
      </root>
    </mxGraphModel>
  </diagram>
</mxfile>
